<svg width="750" height="1624" viewBox="0 0 750 1624" xmlns="http://www.w3.org/2000/svg" role="img" aria-label="TransMenu order ready mock">
  <defs>
    <linearGradient id="bg3" x1="0" x2="0" y1="0" y2="1">
      <stop offset="0%" stop-color="#ff9c66"/>
      <stop offset="100%" stop-color="#ffe9d4"/>
    </linearGradient>
  </defs>
  <rect width="750" height="1624" fill="url(#bg3)" rx="64"/>
  <rect x="60" y="70" width="630" height="1484" rx="56" fill="#12131d" stroke="#f1f1f1" stroke-width="12"/>
  <text x="150" y="160" fill="#f6f6f6" font-size="36" font-family="'Noto Sans TC','Inter',sans-serif" font-weight="700">Your order ready to show staff</text>
  <rect x="110" y="240" width="530" height="720" rx="42" fill="#1e1f2a" stroke="#2d2f3e" stroke-width="8"/>
  <text x="150" y="310" fill="#ffb347" font-size="24" font-family="'Noto Sans TC','Inter',sans-serif">Order list</text>
  <g fill="#171821" stroke="#3c3f53" stroke-width="6">
    <rect x="150" y="360" width="450" height="90" rx="24"/>
    <rect x="150" y="470" width="450" height="90" rx="24"/>
    <rect x="150" y="580" width="450" height="90" rx="24"/>
  </g>
  <g fill="#ededed" font-family="'Noto Sans TC','Inter',sans-serif" font-size="22" font-weight="600">
    <text x="170" y="410">American Style Burger · USD 165 × 3</text>
    <text x="170" y="520">Super American Burger · USD 220 × 2</text>
    <text x="170" y="630">Bacon Cheese Burger · USD 180 × 1</text>
  </g>
  <rect x="150" y="710" width="450" height="190" rx="28" fill="#0c0c12" stroke="#ffb347" stroke-width="6"/>
  <text x="180" y="760" fill="#ffb347" font-size="24" font-family="'Noto Sans TC','Inter',sans-serif">Total · USD 1338.00</text>
  <text x="180" y="800" fill="#ededed" font-size="20" font-family="'Noto Sans TC','Inter',sans-serif">Includes taxes/service fee</text>
  <rect x="220" y="860" width="310" height="56" rx="18" fill="#ffb347"/>
  <text x="245" y="895" fill="#111" font-size="20" font-family="'Noto Sans TC','Inter',sans-serif" font-weight="700">Save as order</text>
</svg>
